# xmcd CD database file
#
# Track frame offsets:
#	150
#	11043
#	24280
#	38434
#	51383
#	63889
#	78786
#	95170
#	110290
#	121900
#	134402
#	147951
#
# Disc length: 2146 seconds
#
# Revision: 0
# Processed by: cddbd v1.5.2PL0 Copyright (c) Steve Scherf et al.
# Submitted via: CDex 1.70beta2
#
DISCID=9608600c
DTITLE=Gudrun Lange and Kactus - Incognito
DYEAR=1900
DGENRE=Country
TTITLE0=Keine Angst
TTITLE1=Meine Helden dürfen weinen
TTITLE2=Ich hab noch lange nicht genug
TTITLE3=Incognito
TTITLE4=Ich hab es gern
TTITLE5=Ich suche nur Dich
TTITLE6=Surrender
TTITLE7=Da wrid überhaupt nichts draus
TTITLE8=Land in Sicht
TTITLE9=Ich weiß, was Du meinst
TTITLE10=Wenn der Zirkus kommt
TTITLE11=Ich will Spaß
EXTD=
EXTT0=
EXTT1=
EXTT2=
EXTT3=
EXTT4=
EXTT5=
EXTT6=
EXTT7=
EXTT8=
EXTT9=
EXTT10=
EXTT11=
PLAYORDER=
